<?xml version="1.0" encoding="iso-8859-1"?>
<!-- Generator: Adobe Illustrator 19.0.0, SVG Export Plug-In . SVG Version: 6.00 Build 0)  -->
<svg version="1.1" id="Capa_1" xmlns="http://www.w3.org/2000/svg" xmlns:xlink="http://www.w3.org/1999/xlink" x="0px" y="0px"
	 viewBox="0 0 512.002 512.002" style="enable-background:new 0 0 512.002 512.002;" xml:space="preserve">
<g>
	<path style="fill:#0A87EB;" d="M60.076,474.56c-3.226,3.141-5.035,7.463-5.009,11.971c0.025,9.365,7.616,16.955,16.981,16.981
		h135.845c9.382,0,16.981-7.599,16.981-16.981c0-9.382-7.599-16.981-16.981-16.981H72.047
		C67.539,469.525,63.217,471.333,60.076,474.56z"/>
	<path style="fill:#0A87EB;" d="M224.873,28.054c-0.025-9.365-7.616-16.955-16.981-16.981H72.047
		c-9.365,0.025-16.955,7.616-16.981,16.981c0.068,9.348,7.633,16.913,16.981,16.981h135.845
		C217.257,45.009,224.839,37.419,224.873,28.054z"/>
	<path style="fill:#0A87EB;" d="M355.921,13.205c-6.639-6.605-17.371-6.605-24.011,0c-3.201,3.167-4.984,7.497-4.924,12.005
		c-0.059,4.508,1.724,8.847,4.924,12.014l0,0l96.051,96.025l0,0l0,0c6.631,6.631,17.38,6.631,24.011,0s6.631-17.38,0-24.011
		L355.921,13.205z"/>
</g>
<g>
	<path style="fill:#78B9EB;" d="M207.892,161.267V45.035H72.047v424.516h135.845V367.387c0-9.008,3.583-17.651,9.951-24.019
		l210.101-210.101l-96.025-96.034L207.892,161.267z"/>
	
		<rect x="379.939" y="17.344" transform="matrix(-0.7071 0.7071 -0.7071 -0.7071 708.8882 -123.1428)" style="fill:#78B9EB;" width="0.017" height="135.801"/>
</g>
<path style="fill:#231F20;" d="M457.983,103.261L361.923,7.202c-10.087-9.603-25.938-9.603-36.024,0
	c-7.616,7.633-9.577,19.239-4.89,28.952L216.382,140.772V51.963c13.236-4.661,20.19-19.171,15.529-32.408
	C228.32,9.367,218.692,2.566,207.892,2.583H72.047c-14.068,0-25.471,11.402-25.471,25.471c0.025,10.766,6.826,20.351,16.981,23.926
	v410.617c-3.549,1.206-6.767,3.218-9.399,5.884c-4.882,4.729-7.624,11.25-7.582,18.05c0,14.068,11.402,25.471,25.471,25.471h135.845
	c14.034,0.025,25.437-11.326,25.462-25.361c0.017-10.8-6.784-20.428-16.972-24.019v-95.236c-0.017-6.758,2.674-13.245,7.463-18.016
	l205.202-205.202c9.696,4.746,21.336,2.785,28.935-4.882l0,0C467.908,129.327,467.908,113.22,457.983,103.261z M72.047,19.564
	h135.845c4.687,0,8.49,3.804,8.49,8.49s-3.804,8.49-8.49,8.49H72.047c-2.292,0.008-4.483-0.934-6.054-2.598
	c-1.579-1.554-2.454-3.676-2.437-5.892C63.557,23.367,67.352,19.564,72.047,19.564z M207.892,495.021H72.047
	c-4.687,0-8.49-3.804-8.49-8.49c0-2.292,0.942-4.474,2.607-6.045c1.545-1.588,3.668-2.471,5.884-2.445h135.845
	c4.687,0,8.49,3.804,8.49,8.49S212.579,495.021,207.892,495.021z M211.84,337.365c-7.989,7.947-12.464,18.755-12.438,30.022v93.674
	H80.537V53.525h118.864v107.742c0,4.687,3.804,8.49,8.49,8.49c2.25,0,4.406-0.891,6.003-2.488L331.91,49.254l84.012,84.054
	L211.84,337.365z M445.977,127.28c-3.311,3.294-8.669,3.294-11.98,0v-0.051l-96.059-96.008h-0.051
	c-1.605-1.613-2.479-3.812-2.42-6.088c-0.025-2.207,0.858-4.339,2.437-5.884c3.328-3.286,8.686-3.286,12.014,0l96.059,96.017
	C449.289,118.578,449.297,123.952,445.977,127.28C445.977,127.272,445.977,127.28,445.977,127.28z"/>
<g>
</g>
<g>
</g>
<g>
</g>
<g>
</g>
<g>
</g>
<g>
</g>
<g>
</g>
<g>
</g>
<g>
</g>
<g>
</g>
<g>
</g>
<g>
</g>
<g>
</g>
<g>
</g>
<g>
</g>
</svg>
